<svg xmlns="http://www.w3.org/2000/svg" width="171.146" height="165.868" viewBox="0 0 171.146 165.868">
  <g id="Group_1278" data-name="Group 1278" transform="translate(-1082.635 -1763.166)">
    <g id="Polygon_8" data-name="Polygon 8" transform="translate(1096.294 1832.11) rotate(-30)" fill="none" stroke-linejoin="round">
      <path d="M82.925,0l27.642,48.073L82.925,96.145H27.642L0,48.073,27.642,0Z" stroke="none"/>
      <path d="M 27.64176177978516 -1.52587890625e-05 L 0 48.07265472412109 L 27.64176177978516 96.14529418945312 L 82.92530822753906 96.14529418945312 L 110.5671005249023 48.07265472412109 L 82.92530822753906 -1.52587890625e-05 L 27.64176177978516 -1.52587890625e-05 M 27.64176177978516 -10.00001525878906 L 82.92530822753906 -10.00001525878906 C 86.50426483154297 -10.00001525878906 89.81036376953125 -8.087348937988281 91.59438323974609 -4.984725952148438 L 119.2361679077148 43.08794021606445 C 121.0107421875 46.17417907714844 121.0107421875 49.97113037109375 119.2361679077148 53.05736923217773 L 91.59438323974609 101.130012512207 C 89.81036376953125 104.2326278686523 86.50426483154297 106.1452941894531 82.92530822753906 106.1452941894531 L 27.64176177978516 106.1452941894531 C 24.06281280517578 106.1452941894531 20.7567138671875 104.2326278686523 18.97269439697266 101.130012512207 L -8.6690673828125 53.05736923217773 C -10.44364166259766 49.97113037109375 -10.44364166259766 46.17417907714844 -8.6690673828125 43.08794021606445 L 18.97269439697266 -4.984725952148438 C 20.7567138671875 -8.087348937988281 24.06281280517578 -10.00001525878906 27.64176177978516 -10.00001525878906 Z" stroke="none" fill="#fff"/>
    </g>
    <g id="Group_1195" data-name="Group 1195" transform="translate(1104.923 1774)">
      <circle id="Ellipse_231" data-name="Ellipse 231" cx="14.742" cy="14.742" r="14.742" transform="translate(48.65 0)" fill="#39beec"/>
      <circle id="Ellipse_232" data-name="Ellipse 232" cx="14.742" cy="14.742" r="14.742" transform="translate(48.65 113.516)" fill="#1b60a3"/>
      <circle id="Ellipse_233" data-name="Ellipse 233" cx="14.374" cy="14.374" r="14.374" transform="translate(97.299 30.959)" fill="#1b60a3"/>
      <circle id="Ellipse_236" data-name="Ellipse 236" cx="14.374" cy="14.374" r="14.374" transform="translate(98.036 83.294)" fill="#39beec"/>
      <circle id="Ellipse_234" data-name="Ellipse 234" cx="14.742" cy="14.742" r="14.742" transform="translate(0 30.959)" fill="#1b60a3"/>
      <circle id="Ellipse_235" data-name="Ellipse 235" cx="14.742" cy="14.742" r="14.742" transform="translate(0.737 83.294)" fill="#39beec"/>
    </g>
  </g>
</svg>
