<svg xmlns="http://www.w3.org/2000/svg" width="138.154" height="143" viewBox="0 0 138.154 143">
  <g id="farm" transform="translate(-27.9 -17.394)">
    <g id="Layer_2" transform="translate(44.812 17.393)">
      <path id="Path_1961" data-name="Path 1961" d="M139.386,114.653V85.091c6.863-.466,19.191-2.515,27.668-10.993,12.111-12.111,11.148-31.922,11.117-32.761a4.859,4.859,0,0,0-4.565-4.565c-.838-.062-20.65-.994-32.73,11.086a30.271,30.271,0,0,0-3.416,4.1c-1.77-7.111-5.093-15.061-11.3-21.271-14.44-14.44-38.195-13.291-39.189-13.26A4.859,4.859,0,0,0,82.4,21.991c-.062.994-1.18,24.749,13.26,39.189,10.589,10.589,26.146,12.794,34.127,13.2v40.275a41.292,41.292,0,0,1,4.813-.279c1.584.031,3.2.124,4.782.279Z" transform="translate(-82.361 -17.393)" fill="#fff"/>
    </g>
    <g id="Layer_1" transform="translate(27.9 92.45)">
      <circle id="Ellipse_147" data-name="Ellipse 147" cx="33.972" cy="33.972" r="33.972" transform="translate(35.773)" fill="#fff"/>
      <circle id="Ellipse_148" data-name="Ellipse 148" cx="33.972" cy="33.972" r="33.972" transform="translate(70.21)" fill="#39beec"/>
      <circle id="Ellipse_149" data-name="Ellipse 149" cx="33.972" cy="33.972" r="33.972" transform="translate(0)" fill="#1b60a3"/>
    </g>
  </g>
</svg>
