<svg xmlns="http://www.w3.org/2000/svg" width="128.727" height="143" viewBox="0 0 128.727 143">
  <g id="Group_1277" data-name="Group 1277" transform="translate(20647.699 10347.703)">
    <path id="Icon_feather-hexagon" data-name="Icon feather-hexagon" d="M133.226,103.109V45.9a14.3,14.3,0,0,0-7.151-12.372L76.015,4.919a14.3,14.3,0,0,0-14.3,0L11.651,33.525A14.3,14.3,0,0,0,4.5,45.9v57.212a14.3,14.3,0,0,0,7.151,12.372l50.06,28.606a14.3,14.3,0,0,0,14.3,0l50.06-28.606A14.3,14.3,0,0,0,133.226,103.109Z" transform="translate(-20652.199 -10350.706)" fill="#fff"/>
    <g id="Group_1266" data-name="Group 1266" transform="translate(-20628.549 -10321.694)">
      <circle id="Ellipse_170" data-name="Ellipse 170" cx="30.915" cy="30.915" r="30.915" transform="translate(30.089 0)" fill="#1b60a3"/>
      <circle id="Ellipse_169" data-name="Ellipse 169" cx="30.915" cy="30.915" r="30.915" transform="translate(0 24.445)" fill="#39beec"/>
    </g>
  </g>
</svg>
