<?xml version="1.0" encoding="utf-8"?>
<!-- Generator: Adobe Illustrator 24.3.0, SVG Export Plug-In . SVG Version: 6.00 Build 0)  -->
<svg version="1.1" xmlns="http://www.w3.org/2000/svg" xmlns:xlink="http://www.w3.org/1999/xlink" x="0px" y="0px"
	 viewBox="0 0 500 500" style="enable-background:new 0 0 500 500;" xml:space="preserve">
<style type="text/css">
	.st0{fill:#39BEEC;}
	.st1{fill:#1B60A3;}
	.st2{fill:#FFFFFF;}
</style>
<g id="Layer_3">
</g>
<g id="Layer_2">
	<path class="st0" d="M270.7,262v-77.9c18-1.2,50.5-6.6,72.9-29c31.8-31.8,29.3-84,29.2-86.2c-0.4-6.5-5.5-11.6-12-12
		c-2.2-0.1-54.4-2.6-86.2,29.2c-3.4,3.4-6.4,7-9,10.8c-4.7-18.7-13.4-39.7-29.8-56C197.7,3,135.2,6,132.5,6.1
		c-6.5,0.4-11.6,5.5-12,12c-0.1,2.6-3.1,65.2,34.9,103.2c27.8,27.8,68.8,33.7,89.8,34.8v106c4.2-0.5,8.5-0.7,12.7-0.7
		C262.2,261.3,266.5,261.6,270.7,262L270.7,262z"/>
</g>
<g id="Layer_1">
	<circle class="st1" cx="137.3" cy="371" r="109.4"/>
	<circle class="st1" cx="250.9" cy="331" r="109.4"/>
	<circle class="st1" cx="364.5" cy="371" r="109.4"/>
</g>
<g id="Layer_4_1_">
	<rect x="21" y="400" class="st2" width="461" height="89"/>
</g>
</svg>
