<svg xmlns="http://www.w3.org/2000/svg" width="149.104" height="143" viewBox="0 0 149.104 143">
  <g id="Layer_1" transform="translate(-35 -38.2)">
    <path id="Path_1963" data-name="Path 1963" d="M248.5,299.251c-11.7,3.362-30.893,24.909-42.591,28.271s-27.464-1.815-27.464-1.815,16.606-1.614,25.716-4.2,10.824-6.454,9.614-10.69c-2.925-10.253-20.808-6.858-29.985-5.647-10.018-2.319-15.6-4.841-30.288-1.95a13.6,13.6,0,0,1,.269,2.622l.134,44.844c15.06,2.252,40.743,5.244,52.811,1.782,17.581-5.042,57.685-41.919,56-47.768S254.348,297.57,248.5,299.251Z" transform="translate(-78.665 -172.843)" fill="#fff"/>
    <circle id="Ellipse_154" data-name="Ellipse 154" cx="41.516" cy="41.516" r="41.516" transform="translate(39 38.2)" fill="#39beec"/>
    <circle id="Ellipse_155" data-name="Ellipse 155" cx="41.516" cy="41.516" r="41.516" transform="translate(94.198 38.2)" fill="#1b60a3"/>
    <rect id="Rectangle_742" data-name="Rectangle 742" width="34.961" height="52.777" transform="translate(35 127.551)" fill="#fff"/>
  </g>
</svg>
